<svg width="31" height="30" viewBox="0 0 31 30" fill="none" xmlns="http://www.w3.org/2000/svg">
<path d="M25.8387 30H5.8674C3.10765 30 0.853027 27.7454 0.853027 24.9856V5.01437C0.853027 2.25462 3.10765 0 5.8674 0H25.8387C28.5984 0 30.853 2.25462 30.853 5.01437V24.9856C30.853 27.7577 28.6107 30 25.8387 30Z" fill="white"/>
<path d="M15.8591 22.7063C13.8016 22.7063 11.8674 21.9055 10.4136 20.4517C8.95976 18.9979 8.15894 17.0636 8.15894 15.0061C8.15894 12.9486 8.95976 11.0143 10.4136 9.56053C11.8674 8.10673 13.8016 7.30591 15.8591 7.30591C17.9166 7.30591 19.8509 8.10673 21.3047 9.56053C22.7585 11.0143 23.5593 12.9486 23.5593 15.0061C23.5593 17.0636 22.7585 18.9979 21.3047 20.4517C19.8386 21.9055 17.9166 22.7063 15.8591 22.7063ZM15.8591 8.94451C12.5203 8.94451 9.79754 11.655 9.79754 15.0061C9.79754 18.3449 12.508 21.0677 15.8591 21.0677C19.1979 21.0677 21.9207 18.3572 21.9207 15.0061C21.9084 11.6673 19.1979 8.94451 15.8591 8.94451Z" fill="black"/>
<path d="M25.0604 7.05314C25.8769 7.05314 26.5389 6.39121 26.5389 5.57467C26.5389 4.75813 25.8769 4.09619 25.0604 4.09619C24.2438 4.09619 23.5819 4.75813 23.5819 5.57467C23.5819 6.39121 24.2438 7.05314 25.0604 7.05314Z" fill="black"/>
</svg>
