<svg width="31" height="30" viewBox="0 0 31 30" fill="none" xmlns="http://www.w3.org/2000/svg">
<path d="M6.85778 9.86523H0.589111V29.8556H6.85778V9.86523Z" fill="white"/>
<path d="M23.8152 9.43187C23.5841 9.40299 23.3385 9.38854 23.093 9.3741C19.5831 9.22966 17.6043 11.3096 16.911 12.2051C16.7232 12.4507 16.6366 12.5951 16.6366 12.5951V9.92297H10.6423V29.9134H16.6366H16.911C16.911 27.8768 16.911 25.8546 16.911 23.818C16.911 22.7203 16.911 21.6225 16.911 20.5248C16.911 19.1671 16.8099 17.7227 17.4888 16.4805C18.0665 15.4405 19.1065 14.9206 20.2764 14.9206C23.743 14.9206 23.8152 18.0549 23.8152 18.3438C23.8152 18.3582 23.8152 18.3727 23.8152 18.3727V30H30.0839V16.9572C30.0839 12.494 27.8162 9.86519 23.8152 9.43187Z" fill="white"/>
<path d="M3.7236 7.27974C5.73384 7.27974 7.36348 5.65011 7.36348 3.63987C7.36348 1.62962 5.73384 0 3.7236 0C1.71336 0 0.0837402 1.62962 0.0837402 3.63987C0.0837402 5.65011 1.71336 7.27974 3.7236 7.27974Z" fill="white"/>
</svg>
