<svg width="31" height="30" viewBox="0 0 31 30" fill="none" xmlns="http://www.w3.org/2000/svg">
<path d="M29.0634 8.63115C28.3011 6.94672 27.2068 5.43443 25.8175 4.13115C24.4282 2.84016 22.8175 1.81967 21.0224 1.10656C19.1659 0.368852 17.1986 0 15.17 0C13.1413 0 11.174 0.368852 9.31748 1.10656C7.5224 1.81967 5.91174 2.82787 4.5224 4.13115C3.13305 5.43443 2.0388 6.94672 1.27651 8.63115C0.489624 10.3771 0.0838623 12.2459 0.0838623 14.1639C0.0838623 17.5205 1.33795 20.7418 3.63713 23.2992L2.40762 30L8.94863 27.0861C10.9035 27.9221 12.9814 28.3402 15.1576 28.3402C17.1863 28.3402 19.1536 27.9713 21.0101 27.2336C22.8052 26.5205 24.4159 25.5123 25.8052 24.209C27.1945 22.9057 28.2888 21.3934 29.0511 19.709C29.838 17.9631 30.2437 16.0943 30.2437 14.1762C30.256 12.2459 29.8503 10.3893 29.0634 8.63115Z" fill="white"/>
<path d="M21.2928 16.992C20.6535 16.6724 20.1863 16.4756 19.8544 16.3527C19.6453 16.2789 19.1535 16.0576 18.9814 16.1929C18.4404 16.6355 17.8625 17.8896 17.2478 18.1232C15.7232 17.8281 14.3093 16.783 13.2027 15.7133C12.7109 15.2461 11.8011 13.9183 11.6043 13.5617C11.5675 13.1929 12.2314 12.701 12.3789 12.4183C13.1412 11.5576 12.5634 11.0166 12.465 10.6601C12.2929 10.2912 11.9978 9.62728 11.7396 9.0863C11.5183 8.72974 11.4691 8.20105 11.0756 8.00433C9.40349 7.14367 8.44452 8.86498 8.05108 9.76253C5.67813 15.4797 19.9404 26.3609 22.842 18.8609C22.9896 18.2092 22.9281 17.9633 22.7068 17.6683C22.2642 17.3609 21.7478 17.2256 21.2928 16.992Z" fill="black"/>
</svg>
