<svg width="21" height="21" viewBox="0 0 21 21" fill="none" xmlns="http://www.w3.org/2000/svg">
<path d="M17.2257 20.7344H3.91155C2.07172 20.7344 0.568634 19.2313 0.568634 17.3915V4.07729C0.568634 2.23746 2.07172 0.734375 3.91155 0.734375H17.2257C19.0656 0.734375 20.5686 2.23746 20.5686 4.07729V17.3915C20.5686 19.2395 19.0738 20.7344 17.2257 20.7344Z" fill="black"/>
<path d="M10.5728 15.8719C9.20114 15.8719 7.91162 15.338 6.94242 14.3688C5.97322 13.3996 5.43934 12.1101 5.43934 10.7384C5.43934 9.36679 5.97322 8.07726 6.94242 7.10806C7.91162 6.13886 9.20114 5.60498 10.5728 5.60498C11.9445 5.60498 13.234 6.13886 14.2032 7.10806C15.1724 8.07726 15.7063 9.36679 15.7063 10.7384C15.7063 12.1101 15.1724 13.3996 14.2032 14.3688C13.2258 15.338 11.9445 15.8719 10.5728 15.8719ZM10.5728 6.69738C8.34694 6.69738 6.53174 8.50436 6.53174 10.7384C6.53174 12.9643 8.33872 14.7795 10.5728 14.7795C12.7987 14.7795 14.6139 12.9725 14.6139 10.7384C14.6057 8.51258 12.7987 6.69738 10.5728 6.69738Z" fill="white"/>
<path d="M16.7068 5.43639C17.2512 5.43639 17.6925 4.9951 17.6925 4.45074C17.6925 3.90638 17.2512 3.46509 16.7068 3.46509C16.1625 3.46509 15.7212 3.90638 15.7212 4.45074C15.7212 4.9951 16.1625 5.43639 16.7068 5.43639Z" fill="white"/>
</svg>
