<svg width="21" height="21" viewBox="0 0 21 21" fill="none" xmlns="http://www.w3.org/2000/svg">
<path d="M5.2386 7.31128H1.05949V20.6382H5.2386V7.31128Z" fill="black"/>
<path d="M16.5434 7.02229C16.3894 7.00303 16.2257 6.9934 16.062 6.98377C13.7221 6.88748 12.4029 8.2741 11.9407 8.87111C11.8155 9.03481 11.7577 9.1311 11.7577 9.1311V7.34969H7.76154V20.6766H11.7577H11.9407C11.9407 19.3189 11.9407 17.9708 11.9407 16.6131C11.9407 15.8812 11.9407 15.1494 11.9407 14.4176C11.9407 13.5124 11.8732 12.5495 12.3258 11.7214C12.711 11.0281 13.4043 10.6814 14.1843 10.6814C16.4953 10.6814 16.5434 12.771 16.5434 12.9636C16.5434 12.9732 16.5434 12.9828 16.5434 12.9828V20.7344H20.7226V12.0391C20.7226 9.0637 19.2108 7.31117 16.5434 7.02229Z" fill="black"/>
<path d="M3.14905 5.58753C4.48922 5.58753 5.57564 4.50112 5.57564 3.16095C5.57564 1.82079 4.48922 0.734375 3.14905 0.734375C1.80889 0.734375 0.722481 1.82079 0.722481 3.16095C0.722481 4.50112 1.80889 5.58753 3.14905 5.58753Z" fill="black"/>
</svg>
