<svg width="21" height="21" viewBox="0 0 21 21" fill="none" xmlns="http://www.w3.org/2000/svg">
<path d="M20.0422 6.48847C19.534 5.36552 18.8045 4.35733 17.8783 3.48847C16.9521 2.62782 15.8783 1.94749 14.6816 1.47208C13.4439 0.980277 12.1324 0.734375 10.7799 0.734375C9.42746 0.734375 8.11598 0.980277 6.87827 1.47208C5.68155 1.94749 4.60778 2.61962 3.68155 3.48847C2.75532 4.35733 2.02582 5.36552 1.51762 6.48847C0.993034 7.65241 0.722527 8.89831 0.722527 10.177C0.722527 12.4147 1.55858 14.5622 3.09137 16.2672L2.2717 20.7344L6.63237 18.7918C7.93565 19.3491 9.32089 19.6278 10.7717 19.6278C12.1242 19.6278 13.4357 19.3819 14.6734 18.8901C15.8701 18.4147 16.9439 17.7426 17.8701 16.8737C18.7963 16.0049 19.5258 14.9967 20.034 13.8737C20.5586 12.7098 20.8291 11.4639 20.8291 10.1852C20.8373 8.89831 20.5668 7.6606 20.0422 6.48847Z" fill="black"/>
<path d="M14.8619 12.0623C14.4357 11.8492 14.1243 11.7181 13.903 11.6361C13.7636 11.5869 13.4357 11.4394 13.321 11.5295C12.9603 11.8246 12.5751 12.6607 12.1652 12.8164C11.1488 12.6197 10.2062 11.923 9.46852 11.2099C9.14065 10.8984 8.5341 10.0131 8.40295 9.77543C8.37836 9.52953 8.82097 9.20166 8.91933 9.01314C9.42752 8.43936 9.04229 8.07871 8.97672 7.841C8.86196 7.5951 8.66525 7.15248 8.49312 6.79182C8.34558 6.55412 8.31276 6.20166 8.05047 6.07051C6.93571 5.49674 6.2964 6.64428 6.0341 7.24264C4.45214 11.0541 13.9603 18.3082 15.8947 13.3082C15.9931 12.8738 15.9521 12.7099 15.8046 12.5131C15.5095 12.3082 15.1652 12.2181 14.8619 12.0623Z" fill="white"/>
</svg>
