<svg width="864" height="232" viewBox="0 0 864 232" fill="none" xmlns="http://www.w3.org/2000/svg">
<path d="M169.092 118.544V118.64C168.708 119.408 168.324 120.08 167.844 120.847C163.717 127.951 157.574 131.502 149.223 130.734C142.696 130.062 137.608 126.799 133.961 121.327C131.945 118.16 130.313 114.896 128.489 111.633C126.762 108.753 125.13 105.874 122.73 103.57C120.715 101.65 118.795 101.458 116.491 102.898C114.859 103.858 113.612 105.298 112.46 106.833C110.444 109.329 108.716 112.113 106.892 114.8C105.837 116.432 104.589 117.968 102.765 118.832C100.653 119.792 99.0215 119.408 97.6777 117.584C97.1978 117.008 96.8138 116.432 96.4299 115.76C94.8941 112.689 93.3583 109.617 91.8225 106.545C90.7666 104.722 89.7108 102.802 88.367 101.17C87.2151 99.8264 86.2553 99.8264 85.2954 101.266C83.9516 103.186 82.8957 105.298 81.9358 107.313C73.8729 123.823 80.0161 90.4197 80.2081 89.3638C81.168 85.1404 82.3198 80.917 84.4315 77.0775C84.8155 76.4056 85.1994 75.7337 85.7753 75.2537C86.8312 74.2939 87.983 74.3898 88.9429 75.5417C89.5188 76.4056 89.9987 77.3654 90.3827 78.3253C91.8225 82.0688 92.5904 86.0043 93.7422 89.8437C94.6061 92.8193 95.758 95.6029 97.5817 98.0986C99.2135 100.402 101.517 100.978 103.917 99.7304C105.165 99.0585 106.221 98.0986 107.276 97.0427C110.06 94.2591 112.364 91.0916 114.475 87.828C117.259 83.6046 119.755 79.1892 123.018 75.3497C123.978 74.1979 124.938 72.95 126.186 72.0862C128.01 70.8383 129.833 71.3183 130.505 73.43C130.793 74.1019 130.985 74.7738 131.081 75.5417C132.809 85.2364 134.633 95.027 137.32 104.53C138.088 107.217 138.76 110.001 140.104 112.497C141.544 115.28 143.751 116.816 147.015 116.816C150.183 116.816 152.39 115.088 153.83 112.401C155.174 109.809 155.558 107.025 155.75 104.242C155.846 103.57 155.846 102.898 155.846 102.322V102.034C155.942 97.3307 155.27 92.6274 153.734 88.116C149.799 76.5975 142.696 67.8627 131.465 62.7754C121.29 58.2641 110.924 57.7841 100.365 61.1437C92.4944 63.7353 86.0633 68.4387 81.072 74.9658C75.5047 82.1648 72.4331 90.3237 72.0492 99.4424C71.9532 100.786 72.0492 102.13 72.0492 103.474C71.9532 103.474 71.8572 103.57 71.7612 103.474C70.3214 102.706 68.8816 102.61 67.4418 103.666C66.8659 104.05 66.8659 103.57 66.8659 103.186C66.6739 99.2504 66.7699 95.411 67.4418 91.5715C70.2254 76.0216 78.1924 63.8313 91.4386 55.3844C103.917 47.5135 117.547 45.4018 131.849 48.6654C142.984 51.257 152.198 56.9202 159.685 65.5591C165.06 71.7022 168.804 78.8052 170.82 86.7722C172.739 93.8752 173.027 101.074 171.972 108.273C171.396 111.825 170.628 115.376 169.092 118.544Z" fill="url(#paint0_radial_4_4)"/>
<path d="M66.482 119.984C70.8014 119.984 74.2569 116.72 74.2569 112.689V85.5243C74.2569 81.3969 70.8014 78.1333 66.482 78.1333C62.2585 78.1333 58.707 81.3969 58.707 85.5243V112.689C58.707 116.72 62.2585 119.984 66.482 119.984Z" fill="#2A2D5E"/>
<path d="M72.3372 117.488C79.9201 138.125 99.6934 152.907 122.826 152.907V157.994C97.6777 157.994 76.1766 142.157 67.7298 119.888C69.5535 119.696 71.1853 118.736 72.3372 117.488Z" fill="#606062"/>
<path d="M105.741 154.923C105.741 157.802 107.948 160.106 110.636 160.106H128.777C131.465 160.106 133.673 157.802 133.673 154.923C133.673 152.043 131.465 149.74 128.777 149.74H110.636C107.948 149.74 105.741 152.043 105.741 154.923Z" fill="#606062"/>
<path d="M185.558 131.331H178L199.86 71.7968H207.302L229.162 131.331H221.604L203.814 81.2152H203.348L185.558 131.331ZM188.349 108.075H218.813V114.47H188.349V108.075ZM238.435 131.331V71.7968H258.551C263.202 71.7968 267.02 72.5913 270.004 74.1804C272.989 75.7502 275.198 77.911 276.632 80.6629C278.066 83.4148 278.783 86.5446 278.783 90.0523C278.783 93.56 278.066 96.6704 276.632 99.3835C275.198 102.097 272.998 104.228 270.033 105.779C267.068 107.31 263.28 108.075 258.667 108.075H242.388V101.564H258.435C261.613 101.564 264.171 101.099 266.109 100.168C268.066 99.2382 269.481 97.9203 270.353 96.215C271.245 94.4902 271.69 92.4359 271.69 90.0523C271.69 87.6686 271.245 85.5853 270.353 83.8024C269.462 82.0195 268.037 80.6435 266.08 79.6745C264.123 78.6862 261.535 78.192 258.318 78.192H245.644V131.331H238.435ZM266.458 104.587L281.109 131.331H272.737L258.318 104.587H266.458ZM290.796 131.331V71.7968H298.005V101.331H298.703L325.447 71.7968H334.865L309.865 98.6568L334.865 131.331H326.144L305.447 103.657L298.005 112.029V131.331H290.796Z" fill="#ED3237"/>
<path d="M429.139 90.4011H421.93C421.504 88.3275 420.758 86.5058 419.692 84.9361C418.645 83.3663 417.366 82.0485 415.855 80.9827C414.362 79.8974 412.705 79.0835 410.884 78.5408C409.062 77.9982 407.163 77.7269 405.186 77.7269C401.582 77.7269 398.316 78.6377 395.39 80.4594C392.483 82.2811 390.167 84.9651 388.442 88.5116C386.737 92.058 385.884 96.4087 385.884 101.564C385.884 106.719 386.737 111.069 388.442 114.616C390.167 118.162 392.483 120.846 395.39 122.668C398.316 124.49 401.582 125.4 405.186 125.4C407.163 125.4 409.062 125.129 410.884 124.587C412.705 124.044 414.362 123.24 415.855 122.174C417.366 121.089 418.645 119.761 419.692 118.191C420.758 116.602 421.504 114.781 421.93 112.726H429.139C428.597 115.769 427.608 118.492 426.174 120.895C424.74 123.298 422.957 125.342 420.825 127.028C418.694 128.695 416.3 129.964 413.645 130.836C411.01 131.709 408.19 132.145 405.186 132.145C400.109 132.145 395.593 130.904 391.64 128.424C387.687 125.943 384.576 122.416 382.309 117.842C380.041 113.269 378.908 107.843 378.908 101.564C378.908 95.2847 380.041 89.8585 382.309 85.2849C384.576 80.7113 387.687 77.1843 391.64 74.7037C395.593 72.2231 400.109 70.9828 405.186 70.9828C408.19 70.9828 411.01 71.4189 413.645 72.2909C416.3 73.163 418.694 74.4421 420.825 76.1281C422.957 77.7947 424.74 79.8296 426.174 82.2326C427.608 84.6163 428.597 87.3391 429.139 90.4011ZM443.231 131.331H435.673L457.533 71.7968H464.974L486.835 131.331H479.277L461.486 81.2152H461.021L443.231 131.331ZM446.021 108.075H476.486V114.47H446.021V108.075ZM496.108 131.331V71.7968H503.317V124.935H530.991V131.331H496.108ZM530.983 78.192V71.7968H575.634V78.192H556.913V131.331H549.704V78.192H530.983ZM586.76 131.331V71.7968H593.969V98.3079H625.713V71.7968H632.922V131.331H625.713V104.703H593.969V131.331H586.76ZM647.355 131.331V71.7968H683.285V78.192H654.564V98.3079H681.424V104.703H654.564V124.935H683.75V131.331H647.355ZM696.279 131.331V71.7968H716.395C721.046 71.7968 724.863 72.5913 727.848 74.1804C730.832 75.7502 733.042 77.911 734.476 80.6629C735.91 83.4148 736.627 86.5446 736.627 90.0523C736.627 93.56 735.91 96.6704 734.476 99.3835C733.042 102.097 730.842 104.228 727.877 105.779C724.912 107.31 721.123 108.075 716.511 108.075H700.232V101.564H716.278C719.456 101.564 722.015 101.099 723.953 100.168C725.91 99.2382 727.325 97.9203 728.197 96.215C729.088 94.4902 729.534 92.4359 729.534 90.0523C729.534 87.6686 729.088 85.5853 728.197 83.8024C727.305 82.0195 725.881 80.6435 723.923 79.6745C721.966 78.6862 719.379 78.192 716.162 78.192H703.488V131.331H696.279ZM724.301 104.587L738.952 131.331H730.58L716.162 104.587H724.301ZM781.197 86.6802C780.848 83.7345 779.434 81.4478 776.953 79.8199C774.472 78.192 771.43 77.3781 767.825 77.3781C765.19 77.3781 762.884 77.8044 760.907 78.6571C758.949 79.5098 757.419 80.6823 756.314 82.1745C755.229 83.6667 754.686 85.3624 754.686 87.2616C754.686 88.8507 755.064 90.217 755.82 91.3604C756.595 92.4844 757.583 93.4243 758.785 94.1801C759.986 94.9165 761.246 95.527 762.564 96.0115C763.882 96.4766 765.093 96.8545 766.197 97.1452L772.244 98.773C773.794 99.18 775.519 99.742 777.418 100.459C779.337 101.176 781.168 102.155 782.912 103.395C784.676 104.616 786.129 106.186 787.273 108.104C788.416 110.023 788.988 112.377 788.988 115.168C788.988 118.385 788.145 121.292 786.459 123.889C784.792 126.486 782.35 128.55 779.133 130.081C775.936 131.612 772.05 132.377 767.476 132.377C763.213 132.377 759.521 131.689 756.401 130.313C753.3 128.937 750.859 127.019 749.076 124.557C747.312 122.096 746.314 119.238 746.082 115.982H753.523C753.717 118.23 754.473 120.091 755.791 121.563C757.128 123.017 758.814 124.102 760.849 124.819C762.903 125.517 765.112 125.866 767.476 125.866C770.228 125.866 772.699 125.42 774.889 124.528C777.079 123.618 778.813 122.358 780.093 120.749C781.372 119.122 782.011 117.222 782.011 115.052C782.011 113.075 781.459 111.467 780.354 110.226C779.25 108.986 777.796 107.978 775.994 107.203C774.191 106.428 772.244 105.75 770.151 105.168L762.825 103.075C758.174 101.738 754.492 99.8292 751.779 97.3487C749.066 94.8681 747.709 91.622 747.709 87.6104C747.709 84.2772 748.611 81.3702 750.413 78.8897C752.234 76.3897 754.676 74.4518 757.738 73.0758C760.82 71.6805 764.259 70.9828 768.058 70.9828C771.895 70.9828 775.306 71.6708 778.29 73.0467C781.275 74.4033 783.639 76.2637 785.383 78.628C787.147 80.9923 788.077 83.6764 788.174 86.6802H781.197Z" fill="#ED3237"/>
<path d="M276.734 162.292H268.931C268.789 161.283 268.498 160.386 268.058 159.602C267.619 158.806 267.055 158.129 266.366 157.571C265.677 157.013 264.881 156.585 263.978 156.288C263.088 155.991 262.12 155.843 261.074 155.843C259.186 155.843 257.541 156.312 256.139 157.25C254.738 158.177 253.651 159.531 252.879 161.312C252.107 163.082 251.721 165.232 251.721 167.762C251.721 170.363 252.107 172.548 252.879 174.318C253.663 176.088 254.756 177.424 256.157 178.327C257.559 179.229 259.18 179.681 261.021 179.681C262.054 179.681 263.01 179.544 263.889 179.271C264.78 178.998 265.57 178.6 266.259 178.077C266.948 177.543 267.518 176.895 267.969 176.135C268.432 175.375 268.753 174.508 268.931 173.534L276.734 173.57C276.533 175.244 276.028 176.86 275.22 178.416C274.424 179.96 273.349 181.343 271.995 182.567C270.653 183.778 269.05 184.74 267.185 185.453C265.332 186.154 263.236 186.504 260.896 186.504C257.642 186.504 254.732 185.768 252.166 184.295C249.613 182.822 247.594 180.69 246.109 177.899C244.636 175.108 243.9 171.729 243.9 167.762C243.9 163.783 244.648 160.398 246.145 157.607C247.641 154.816 249.672 152.69 252.238 151.229C254.803 149.756 257.689 149.02 260.896 149.02C263.01 149.02 264.97 149.317 266.775 149.91C268.593 150.504 270.202 151.371 271.603 152.511C273.005 153.64 274.145 155.023 275.024 156.663C275.915 158.302 276.485 160.178 276.734 162.292Z" fill="#606062"/>
<path d="M334.031 167.762C334.031 171.741 333.277 175.126 331.768 177.917C330.272 180.708 328.229 182.84 325.64 184.313C323.062 185.774 320.164 186.504 316.946 186.504C313.703 186.504 310.793 185.768 308.216 184.295C305.639 182.822 303.602 180.69 302.105 177.899C300.609 175.108 299.86 171.729 299.86 167.762C299.86 163.783 300.609 160.398 302.105 157.607C303.602 154.816 305.639 152.69 308.216 151.229C310.793 149.756 313.703 149.02 316.946 149.02C320.164 149.02 323.062 149.756 325.64 151.229C328.229 152.69 330.272 154.816 331.768 157.607C333.277 160.398 334.031 163.783 334.031 167.762ZM326.21 167.762C326.21 165.184 325.824 163.011 325.052 161.241C324.292 159.472 323.217 158.129 321.827 157.215C320.438 156.3 318.81 155.843 316.946 155.843C315.081 155.843 313.454 156.3 312.064 157.215C310.674 158.129 309.594 159.472 308.822 161.241C308.061 163.011 307.681 165.184 307.681 167.762C307.681 170.339 308.061 172.513 308.822 174.282C309.594 176.052 310.674 177.394 312.064 178.309C313.454 179.223 315.081 179.681 316.946 179.681C318.81 179.681 320.438 179.223 321.827 178.309C323.217 177.394 324.292 176.052 325.052 174.282C325.824 172.513 326.21 170.339 326.21 167.762Z" fill="#606062"/>
<path d="M392.26 149.518V186.005H385.597L369.723 163.041H369.456V186.005H361.741V149.518H368.511L384.26 172.465H384.581V149.518H392.26Z" fill="#606062"/>
<path d="M451.868 149.518V186.005H445.205L429.331 163.041H429.063V186.005H421.349V149.518H428.119L443.868 172.465H444.189V149.518H451.868Z" fill="#606062"/>
<path d="M480.957 186.005V149.518H505.543V155.879H488.671V164.573H504.278V170.933H488.671V179.645H505.614V186.005H480.957Z" fill="#606062"/>
<path d="M564.407 162.292H556.604C556.461 161.283 556.17 160.386 555.731 159.602C555.291 158.806 554.727 158.129 554.038 157.571C553.349 157.013 552.554 156.585 551.651 156.288C550.76 155.991 549.792 155.843 548.747 155.843C546.859 155.843 545.214 156.312 543.812 157.25C542.411 158.177 541.324 159.531 540.552 161.312C539.78 163.082 539.394 165.232 539.394 167.762C539.394 170.363 539.78 172.548 540.552 174.318C541.336 176.088 542.428 177.424 543.83 178.327C545.231 179.229 546.853 179.681 548.694 179.681C549.727 179.681 550.683 179.544 551.562 179.271C552.453 178.998 553.243 178.6 553.931 178.077C554.62 177.543 555.19 176.895 555.642 176.135C556.105 175.375 556.426 174.508 556.604 173.534L564.407 173.57C564.205 175.244 563.7 176.86 562.893 178.416C562.097 179.96 561.022 181.343 559.668 182.567C558.326 183.778 556.723 184.74 554.858 185.453C553.005 186.154 550.909 186.504 548.569 186.504C545.315 186.504 542.405 185.768 539.839 184.295C537.286 182.822 535.266 180.69 533.782 177.899C532.309 175.108 531.573 171.729 531.573 167.762C531.573 163.783 532.321 160.398 533.817 157.607C535.314 154.816 537.345 152.69 539.91 151.229C542.476 149.756 545.362 149.02 548.569 149.02C550.683 149.02 552.643 149.317 554.448 149.91C556.265 150.504 557.875 151.371 559.276 152.511C560.678 153.64 561.818 155.023 562.697 156.663C563.588 158.302 564.158 160.178 564.407 162.292Z" fill="#606062"/>
<path d="M586.785 155.879V149.518H616.751V155.879H605.58V186.005H597.955V155.879H586.785Z" fill="#606062"/>
<defs>
<radialGradient id="paint0_radial_4_4" cx="0" cy="0" r="1" gradientUnits="userSpaceOnUse" gradientTransform="translate(161.991 55.5642) rotate(131.661) scale(28.588 28.588)">
<stop stop-color="#FC006D"/>
<stop offset="0.509804" stop-color="#E0093F"/>
<stop offset="1" stop-color="#C41212"/>
</radialGradient>
</defs>
</svg>
